<svg width="30" height="28" viewBox="0 0 22 20" fill="none" xmlns="http://www.w3.org/2000/svg">
<path d="M18.417 13.7132C22.368 8.70316 21.301 3.73516 18.463 1.99416C15.781 0.34916 13.44 1.01216 12.034 2.06816L11 2.84216M18.417 13.7132C17.469 14.9162 16.232 16.1202 14.66 17.2832C13.115 18.4282 12.342 19.0002 11 19.0002C9.65798 19.0002 8.88598 18.4282 7.33998 17.2832C-0.778019 11.2752 0.0179811 4.15316 3.53698 1.99416C6.21898 0.34916 8.55998 1.01216 9.96598 2.06816L11 2.84216M18.417 13.7132L12.892 7.44516C12.7823 7.32114 12.6322 7.24002 12.4683 7.21622C12.3044 7.19242 12.1374 7.22748 11.997 7.31516L9.81098 8.68116C9.38229 8.95236 8.86534 9.04728 8.36827 8.94604C7.87121 8.8448 7.43255 8.55526 7.14408 8.138C6.85562 7.72074 6.73969 7.20808 6.82056 6.7073C6.90143 6.20652 7.17283 5.75641 7.57798 5.45116L11 2.84216" stroke="white" stroke-width="1.5" stroke-linecap="round" stroke-linejoin="round"/>
</svg>
