<svg width="15" height="24" viewBox="0 0 5 14" fill="none" xmlns="http://www.w3.org/2000/svg">
<path d="M4.39493 4.882L0.959928 5.3125L0.836928 5.8825L1.51193 6.007C1.95293 6.112 2.03993 6.271 1.94393 6.7105L0.836928 11.9125C0.545928 13.258 0.994428 13.891 2.04893 13.891C2.86643 13.891 3.81593 13.513 4.24643 12.994L4.37843 12.37C4.07843 12.634 3.64043 12.739 3.34943 12.739C2.93693 12.739 2.78693 12.4495 2.89343 11.9395L4.39493 4.882ZM4.49993 1.75C4.49993 2.14782 4.34189 2.52936 4.06059 2.81066C3.77928 3.09196 3.39775 3.25 2.99993 3.25C2.6021 3.25 2.22057 3.09196 1.93927 2.81066C1.65796 2.52936 1.49993 2.14782 1.49993 1.75C1.49993 1.35218 1.65796 0.970644 1.93927 0.68934C2.22057 0.408035 2.6021 0.25 2.99993 0.25C3.39775 0.25 3.77928 0.408035 4.06059 0.68934C4.34189 0.970644 4.49993 1.35218 4.49993 1.75Z" fill="#001F3F"/>
</svg>
