<svg width="20" height="22" viewBox="0 0 20 22" fill="none" xmlns="http://www.w3.org/2000/svg">
<path d="M1 9.23421L1.747 9.17021C1.72978 8.97812 1.63924 8.80005 1.49416 8.67298C1.34909 8.54591 1.16064 8.47961 0.967959 8.48784C0.775279 8.49608 0.593177 8.57823 0.459478 8.71721C0.325779 8.8562 0.250759 9.04135 0.25 9.23421H1ZM18.236 11.0572L17.53 15.1372L19.009 15.3932L19.714 11.3132L18.236 11.0572ZM11.245 20.2502H6.596V21.7502H11.245V20.2502ZM5.685 19.4132L4.873 10.0202L3.378 10.1492L4.191 19.5422L5.685 19.4132ZM17.53 15.1372C17.023 18.0672 14.381 20.2502 11.245 20.2502V21.7502C15.071 21.7502 18.371 19.0812 19.009 15.3932L17.53 15.1372ZM11.255 4.10021L10.592 8.14521L12.072 8.38721L12.735 4.34321L11.255 4.10021ZM5.188 9.24621L6.627 8.00621L5.647 6.87021L4.21 8.11021L5.188 9.24621ZM9.244 3.97221L9.72 2.13821L8.268 1.76221L7.792 3.59521L9.244 3.97221ZM10.438 1.77821L10.583 1.82521L11.042 0.397209L10.897 0.350209L10.438 1.77821ZM8.523 5.81621C8.83519 5.23212 9.0772 4.61315 9.244 3.97221L7.792 3.59521C7.65421 4.1215 7.45553 4.62993 7.2 5.11021L8.523 5.81621ZM10.583 1.82521C10.7255 1.86887 10.8547 1.9476 10.9588 2.05417C11.063 2.16075 11.1387 2.29177 11.179 2.43521L12.631 2.05921C12.5281 1.67051 12.3284 1.31422 12.0505 1.02358C11.7727 0.732951 11.4257 0.517455 11.042 0.397209L10.583 1.82521ZM9.72 2.13821C9.74024 2.06632 9.77572 1.99964 9.82404 1.9427C9.87235 1.88575 9.93237 1.83988 10 1.80821L9.349 0.457209C8.817 0.713209 8.417 1.18721 8.268 1.76221L9.72 2.13821ZM10 1.80821C10.137 1.74324 10.2935 1.73252 10.438 1.77821L10.897 0.350209C10.3863 0.18694 9.83242 0.225223 9.349 0.457209L10 1.80821ZM12.154 9.98421H17.334V8.48421H12.154V9.98421ZM2.719 20.4062L1.747 9.17021L0.253 9.29921L1.223 20.5352L2.719 20.4062ZM1.75 20.5132V9.23421H0.25V20.5132H1.75ZM1.223 20.5352C1.21995 20.4989 1.22549 20.4623 1.23733 20.4278C1.24918 20.3933 1.26807 20.3617 1.2928 20.3348C1.31753 20.308 1.34757 20.2867 1.381 20.2721C1.41443 20.2575 1.45053 20.2501 1.487 20.2502V21.7502C2.213 21.7502 2.781 21.1282 2.719 20.4062L1.223 20.5352ZM12.735 4.34321C12.8607 3.583 12.8253 2.80485 12.631 2.05921L11.179 2.43621C11.3208 2.9794 11.3467 3.54636 11.255 4.10021L12.735 4.34321ZM6.596 20.2502C6.36701 20.2498 6.14648 20.1637 5.97785 20.0087C5.80923 19.8538 5.70475 19.6413 5.685 19.4132L4.191 19.5422C4.24303 20.1444 4.51888 20.7052 4.96411 21.1139C5.40933 21.5227 5.99159 21.7497 6.596 21.7502V20.2502ZM6.627 8.00621C7.307 7.42021 8.039 6.72321 8.524 5.81621L7.2 5.11021C6.854 5.75921 6.303 6.30621 5.647 6.87021L6.627 8.00621ZM19.714 11.3132C19.7742 10.9662 19.7578 10.6102 19.666 10.2702C19.5741 9.93019 19.4091 9.61437 19.1823 9.34486C18.9556 9.07535 18.6727 8.85868 18.3534 8.71001C18.0341 8.56134 17.6862 8.48427 17.334 8.48421V9.98421C17.901 9.98421 18.334 10.4962 18.236 11.0572L19.714 11.3132ZM1.487 20.2502C1.633 20.2502 1.75 20.3682 1.75 20.5132H0.25C0.25 21.1952 0.803 21.7502 1.487 21.7502V20.2502ZM10.592 8.14521C10.5547 8.37179 10.5672 8.60377 10.6285 8.82505C10.6899 9.04633 10.7986 9.25162 10.9472 9.42667C11.0958 9.60173 11.2807 9.74236 11.4891 9.83881C11.6975 9.93525 11.9244 9.98421 12.154 9.98421V8.48421C12.1418 8.48426 12.1297 8.48263 12.1187 8.47749C12.1076 8.47235 12.0978 8.46483 12.09 8.45547C12.0821 8.44612 12.0765 8.43515 12.0734 8.42335C12.0703 8.41155 12.0698 8.39921 12.072 8.38721L10.592 8.14521ZM4.873 10.0202C4.8608 9.87541 4.88208 9.72978 4.937 9.59524C4.99193 9.46071 5.07794 9.3411 5.188 9.24621L4.208 8.10921C3.91814 8.35935 3.69177 8.67468 3.54748 9.02932C3.4032 9.38395 3.34511 9.76776 3.378 10.1492L4.873 10.0202Z" fill="white"/>
</svg>
