<svg width="22" height="24" viewBox="0 0 22 24" fill="none" xmlns="http://www.w3.org/2000/svg">
<path d="M3 10H1C1 4.477 1 1 11 1C21 1 21 4.477 21 10H19M19 8C19 9.105 15.418 10 11 10C6.582 10 3 9.105 3 8M19 8C19 6.895 15.418 6 11 6C6.582 6 3 6.895 3 8M19 8V20C19 21.657 15.418 23 11 23C6.582 23 3 21.657 3 20V8M19 8C19 11 17 10 17 12V13.5C17 13.8978 16.842 14.2794 16.5607 14.5607C16.2794 14.842 15.8978 15 15.5 15C15.1022 15 14.7206 14.842 14.4393 14.5607C14.158 14.2794 14 13.8978 14 13.5V13C14 12.7348 13.8946 12.4804 13.7071 12.2929C13.5196 12.1054 13.2652 12 13 12C12.7348 12 12.4804 12.1054 12.2929 12.2929C12.1054 12.4804 12 12.7348 12 13V17C12 17.663 11.7366 18.2989 11.2678 18.7678C10.7989 19.2366 10.163 19.5 9.5 19.5C8.83696 19.5 8.20107 19.2366 7.73223 18.7678C7.26339 18.2989 7 17.663 7 17V13C7 12.7348 6.89464 12.4804 6.70711 12.2929C6.51957 12.1054 6.26522 12 6 12C4.5 12 3 11 3 8" stroke="white" stroke-width="2"/>
</svg>
