<svg width="85" height="201" viewBox="0 0 85 201" fill="none" xmlns="http://www.w3.org/2000/svg">
<path d="M40.9866 200.424C40.9866 200.424 23.7084 148.764 44.2325 110.728C52.983 94.8264 55.6244 76.8641 51.7609 59.5338C49.8434 51.3189 47.0756 43.2748 43.492 35.5015" stroke="#535461" stroke-width="2" stroke-miterlimit="10"/>
<path d="M56.3149 11.4692C56.3149 17.794 43.2451 36.1622 43.2451 36.1622C43.2451 36.1622 30.1753 17.7507 30.1753 11.4692C30.1753 8.42736 31.5523 5.51016 34.0034 3.35926C36.4544 1.20837 39.7788 0 43.2451 0C46.7114 0 50.0358 1.20837 52.4868 3.35926C54.9379 5.51016 56.3149 8.42736 56.3149 11.4692V11.4692Z" fill="#57B894"/>
<path d="M77.9126 46.5375C73.988 51.8551 51.6497 61.0392 51.6497 61.0392C51.6497 61.0392 52.0446 39.3787 55.9692 34.0827C57.8871 31.6011 60.8362 29.8774 64.1847 29.2806C67.5333 28.6839 71.015 29.2616 73.884 30.89C76.7531 32.5185 78.7814 35.0681 79.5344 37.9928C80.2874 40.9176 79.7052 43.9848 77.9126 46.5375V46.5375Z" fill="#57B894"/>
<path d="M76.9624 106.483C70.5201 109.331 45.9479 107.36 45.9479 107.36C45.9479 107.36 58.7585 88.8621 65.2008 86.0029C66.7373 85.2888 68.4206 84.851 70.1523 84.715C71.8839 84.579 73.6291 84.7474 75.2856 85.2106C76.9422 85.6738 78.4767 86.4224 79.7995 87.4125C81.1222 88.4026 82.2066 89.6144 82.989 90.9768C83.7714 92.3393 84.2363 93.825 84.3562 95.3471C84.4762 96.8691 84.2489 98.3969 83.6877 99.8409C83.1265 101.285 82.2426 102.616 81.0878 103.757C79.933 104.897 78.5305 105.824 76.9624 106.483Z" fill="#57B894"/>
<path d="M64.6084 151.688C58.8078 155.457 34.2109 157.103 34.2109 157.103C34.2109 157.103 43.2697 136.97 49.0209 133.201C50.3901 132.216 51.9731 131.486 53.6738 131.054C55.3745 130.622 57.1575 130.498 58.9145 130.689C60.6715 130.88 62.3659 131.383 63.8949 132.166C65.424 132.949 66.7557 133.997 67.8094 135.245C68.8631 136.494 69.6167 137.917 70.0246 139.429C70.4324 140.941 70.486 142.51 70.1821 144.04C69.8781 145.571 69.2229 147.031 68.2563 148.333C67.2897 149.635 66.0318 150.75 64.559 151.612L64.6084 151.688Z" fill="#57B894"/>
<path d="M24.2143 62.263C29.3855 66.6817 53.501 71.2521 53.501 71.2521C53.501 71.2521 47.5894 50.2306 42.3935 45.8119C41.1735 44.7177 39.7162 43.8488 38.1075 43.2566C36.4988 42.6644 34.7713 42.3609 33.0268 42.3638C31.2823 42.3667 29.5561 42.676 27.95 43.2736C26.3439 43.8711 24.8903 44.7448 23.6751 45.8431C22.4598 46.9414 21.5073 48.242 20.8739 49.6684C20.2405 51.0947 19.9388 52.618 19.9868 54.1483C20.0347 55.6786 20.4313 57.1849 21.1531 58.5786C21.8749 59.9723 22.9074 61.225 24.1896 62.263H24.2143Z" fill="#57B894"/>
<path d="M10.5522 115.299C16.9945 118.147 41.5667 116.187 41.5667 116.187C41.5667 116.187 28.7684 97.6778 22.3137 94.8294C20.7821 94.1517 19.1134 93.7454 17.4029 93.6336C15.6924 93.5218 13.9735 93.7068 12.3444 94.1779C10.7153 94.6491 9.20796 95.3972 7.90836 96.3796C6.60876 97.362 5.54239 98.5594 4.77011 99.9034C3.99784 101.247 3.53478 102.712 3.4074 104.213C3.28003 105.714 3.49081 107.222 4.02772 108.652C4.56464 110.081 5.41717 111.404 6.53663 112.545C7.65609 113.685 9.02057 114.621 10.5522 115.299V115.299Z" fill="#57B894"/>
<path d="M5.29461 168.453C11.0952 172.212 35.692 173.869 35.692 173.869C35.692 173.869 26.6333 153.724 20.8821 149.955C18.091 148.322 14.6908 147.692 11.3855 148.198C8.08025 148.703 5.12308 150.305 3.12631 152.671C1.12954 155.037 0.246105 157.986 0.658925 160.908C1.07175 163.83 2.7492 166.5 5.34396 168.367L5.29461 168.453Z" fill="#57B894"/>
</svg>
