<svg width="32" height="32" viewBox="0 0 24 24" fill="none" xmlns="http://www.w3.org/2000/svg">
<path d="M12.0005 6.5625C12.5567 6.5625 13.1005 6.39755 13.563 6.08851C14.0255 5.77947 14.386 5.34022 14.5989 4.8263C14.8117 4.31238 14.8674 3.74688 14.7589 3.20131C14.6504 2.65574 14.3825 2.1546 13.9892 1.76126C13.5959 1.36793 13.0947 1.10006 12.5491 0.991543C12.0036 0.883022 11.4381 0.938719 10.9242 1.15159C10.4102 1.36446 9.97098 1.72495 9.66194 2.18746C9.3529 2.64997 9.18795 3.19374 9.18795 3.75C9.18795 4.49592 9.48427 5.21129 10.0117 5.73874C10.5392 6.26618 11.2545 6.5625 12.0005 6.5625ZM12.0005 2.0625C12.3342 2.0625 12.6605 2.16147 12.938 2.3469C13.2155 2.53232 13.4318 2.79587 13.5595 3.10422C13.6872 3.41257 13.7206 3.75187 13.6555 4.07922C13.5904 4.40656 13.4297 4.70724 13.1937 4.94324C12.9577 5.17924 12.657 5.33996 12.3297 5.40508C12.0023 5.47019 11.663 5.43677 11.3547 5.30905C11.0463 5.18133 10.7828 4.96503 10.5973 4.68753C10.4119 4.41002 10.313 4.08376 10.313 3.75C10.313 3.30245 10.4907 2.87323 10.8072 2.55676C11.1237 2.24029 11.5529 2.0625 12.0005 2.0625ZM20.3329 12.6956L16.0945 7.89C15.8306 7.59068 15.506 7.35094 15.1423 7.18672C14.7787 7.02249 14.3842 6.93754 13.9851 6.9375H10.0158C9.61679 6.93742 9.22236 7.02223 8.85868 7.18629C8.49499 7.35035 8.17038 7.58991 7.90639 7.88906L3.66795 12.6956C3.51049 12.8516 3.38529 13.0371 3.29951 13.2415C3.21372 13.4458 3.16903 13.6651 3.16799 13.8867C3.16588 14.3344 3.34167 14.7645 3.6567 15.0825C3.97173 15.4005 4.40018 15.5804 4.84781 15.5825C5.29543 15.5846 5.72556 15.4088 6.04358 15.0938L8.02264 13.5066L6.32295 19.9613C6.14427 20.3673 6.13267 20.8274 6.29066 21.2419C6.44865 21.6565 6.76353 21.9921 7.16714 22.1762C7.57075 22.3604 8.03064 22.3781 8.44726 22.2257C8.86388 22.0733 9.20374 21.763 9.39326 21.3619L12.0005 16.875L14.6076 21.3666C14.7972 21.7677 15.137 22.078 15.5536 22.2304C15.9703 22.3828 16.4301 22.365 16.8338 22.1809C17.2374 21.9968 17.5522 21.6611 17.7102 21.2466C17.8682 20.8321 17.8566 20.372 17.6779 19.9659L15.9783 13.5094L17.9573 15.0938C18.2773 15.3979 18.7036 15.5645 19.145 15.558C19.5864 15.5515 20.0076 15.3722 20.3184 15.0588C20.6292 14.7453 20.8047 14.3225 20.8075 13.8811C20.8102 13.4397 20.6398 13.0148 20.3329 12.6975V12.6956ZM19.5239 14.2725C19.4716 14.3248 19.4096 14.3663 19.3413 14.3946C19.273 14.4229 19.1998 14.4375 19.1259 14.4375C19.052 14.4375 18.9788 14.4229 18.9105 14.3946C18.8422 14.3663 18.7802 14.3248 18.7279 14.2725C18.7138 14.2575 18.6984 14.2437 18.682 14.2313L15.3529 11.5613C15.2607 11.4872 15.1474 11.4441 15.0292 11.4381C14.9111 11.4321 14.794 11.4636 14.6948 11.528C14.5955 11.5923 14.519 11.6864 14.4763 11.7967C14.4336 11.907 14.4267 12.028 14.4567 12.1425L16.6008 20.2922C16.6102 20.3242 16.6218 20.3555 16.6354 20.3859C16.6985 20.5212 16.7052 20.676 16.6541 20.8162C16.603 20.9564 16.4984 21.0706 16.3631 21.1336C16.2278 21.1966 16.0731 21.2033 15.9329 21.1523C15.7927 21.1012 15.6785 20.9965 15.6154 20.8613C15.6087 20.8457 15.6008 20.8307 15.592 20.8163L12.487 15.4688C12.4376 15.3835 12.3666 15.3128 12.2812 15.2636C12.1958 15.2144 12.099 15.1885 12.0005 15.1885C11.9019 15.1885 11.8051 15.2144 11.7197 15.2636C11.6343 15.3128 11.5633 15.3835 11.5139 15.4688L8.40889 20.8172C8.40007 20.8316 8.39224 20.8467 8.38545 20.8622C8.32242 20.9974 8.20824 21.1021 8.06803 21.1532C7.92781 21.2043 7.77305 21.1976 7.63779 21.1345C7.50253 21.0715 7.39785 20.9573 7.34678 20.8171C7.2957 20.6769 7.30242 20.5221 7.36545 20.3869C7.37908 20.3564 7.39067 20.3251 7.40014 20.2931L9.5442 12.1434C9.57374 12.0294 9.56674 11.909 9.52419 11.7992C9.48163 11.6893 9.40567 11.5956 9.30701 11.5313C9.21592 11.4713 9.10951 11.4387 9.00045 11.4375C8.87228 11.4374 8.74792 11.481 8.64795 11.5613L5.31889 14.2313C5.30247 14.2437 5.2871 14.2575 5.27295 14.2725C5.1674 14.378 5.02425 14.4373 4.87498 14.4373C4.72571 14.4373 4.58256 14.378 4.47701 14.2725C4.37147 14.167 4.31217 14.0238 4.31217 13.8745C4.31217 13.7253 4.37147 13.5821 4.47701 13.4766L4.50139 13.4513L8.75014 8.63344C8.90853 8.45395 9.1033 8.31021 9.32151 8.21177C9.53972 8.11334 9.77638 8.06245 10.0158 8.0625H13.9851C14.2245 8.06245 14.4612 8.11334 14.6794 8.21177C14.8976 8.31021 15.0924 8.45395 15.2508 8.63344L19.5004 13.4513L19.5248 13.4766C19.5771 13.5289 19.6185 13.591 19.6467 13.6593C19.6749 13.7276 19.6894 13.8008 19.6893 13.8747C19.6892 13.9486 19.6746 14.0218 19.6462 14.0901C19.6178 14.1583 19.5762 14.2203 19.5239 14.2725Z" fill="white"/>
</svg>
