<svg width="32" height="32" viewBox="0 0 20 20" fill="none" xmlns="http://www.w3.org/2000/svg">
<path d="M9.5625 0C7.67122 0 5.82241 0.560831 4.24986 1.61157C2.67732 2.66231 1.45167 4.15577 0.727906 5.90309C0.00414312 7.65041 -0.185226 9.57311 0.183745 11.4281C0.552716 13.283 1.46346 14.9869 2.8008 16.3242C4.13814 17.6615 5.84201 18.5723 7.69695 18.9413C9.5519 19.3102 11.4746 19.1209 13.2219 18.3971C14.9692 17.6733 16.4627 16.4477 17.5134 14.8751C18.5642 13.3026 19.125 11.4538 19.125 9.5625C19.122 7.02728 18.1136 4.59675 16.3209 2.80408C14.5283 1.01141 12.0977 0.00297736 9.5625 0ZM9.5625 18C7.89372 18 6.26242 17.5051 4.87488 16.578C3.48734 15.6509 2.40589 14.3331 1.76727 12.7914C1.12866 11.2496 0.961566 9.55314 1.28713 7.91643C1.61269 6.27971 2.41629 4.77629 3.59629 3.59629C4.7763 2.41628 6.27972 1.61269 7.91643 1.28712C9.55314 0.961561 11.2496 1.12865 12.7914 1.76727C14.3331 2.40588 15.6509 3.48734 16.578 4.87488C17.5052 6.26242 18 7.89372 18 9.5625C17.9975 11.7995 17.1078 13.9442 15.526 15.526C13.9442 17.1078 11.7995 17.9975 9.5625 18ZM15.375 9.5625C15.375 9.71168 15.3157 9.85476 15.2103 9.96025C15.1048 10.0657 14.9617 10.125 14.8125 10.125H9.5625C9.41332 10.125 9.27025 10.0657 9.16476 9.96025C9.05927 9.85476 9 9.71168 9 9.5625V4.3125C9 4.16332 9.05927 4.02024 9.16476 3.91475C9.27025 3.80926 9.41332 3.75 9.5625 3.75C9.71169 3.75 9.85476 3.80926 9.96025 3.91475C10.0657 4.02024 10.125 4.16332 10.125 4.3125V9H14.8125C14.9617 9 15.1048 9.05926 15.2103 9.16475C15.3157 9.27024 15.375 9.41332 15.375 9.5625Z" fill="white"/>
</svg>
