<svg xmlns="http://www.w3.org/2000/svg" viewBox="0 0 24 24" fill="#ffffff" width="24" height="24">
    <path d="M12 21.35l-1.45-1.32C5.4 15.36 2 12.28 2 8.5 2 5.42 4.42 3 7.5 3c1.74 0 3.41.81 4.5 2.09C13.09 3.81 14.76 3 16.5 3 19.58 3 22 5.42 22 8.5c0 3.78-3.4 6.86-8.55 11.54L12 21.35z"/>
    <path d="M2 12h1.2l.56-1.6c.07-.2.18-.39.34-.54L5.4 8.3l.79-.35c.13-.06.28-.1.42-.1h4c.13 0 .27.04.4.1l.8.35 1.46 1.16c.17.15.27.34.34.54l.56 1.6H22v2H3v-2zm4 4h3v-2H6v2zm5 0h3v-2h-3v2zm4 0h3v-2h-3v2z"/>
  </svg>